# Blender v2.80 (sub 74) OBJ File: 'PoolScene.blend'
# www.blender.org
mtllib BoothTables.mtl
o Cube.009_Cube.020
v 19.368420 3.871982 -18.951706
v 19.448292 4.174743 -19.086027
v 19.368420 3.871982 -27.872913
v 19.448292 4.174743 -27.738592
v 24.673214 3.871982 -18.951706
v 24.593342 4.174743 -19.086027
v 24.673214 3.871982 -27.872913
v 24.593342 4.174743 -27.738592
v 19.368420 4.108764 -18.951706
v 19.368420 4.108764 -27.872913
v 24.673214 4.108764 -27.872913
v 24.673214 4.108764 -18.951706
v 21.815393 0.271432 -22.944971
v 20.863380 -0.038945 -21.028545
v 21.815393 0.271432 -23.877594
v 20.863380 -0.038945 -25.794020
v 22.278688 0.271432 -22.944971
v 23.230703 -0.038945 -21.028545
v 22.278688 0.271432 -23.877594
v 23.230703 -0.038945 -25.794020
v 20.863380 0.053789 -21.028545
v 20.863380 0.053789 -25.794020
v 23.230703 0.053789 -25.794020
v 23.230703 0.053789 -21.028545
v 22.037958 0.104855 -23.690365
v 22.037958 4.079956 -23.690365
v 22.240164 0.104855 -23.606609
v 22.240164 4.079956 -23.606609
v 22.323919 0.104855 -23.404404
v 22.323919 4.079956 -23.404404
v 22.240164 0.104855 -23.202198
v 22.240164 4.079956 -23.202198
v 22.037958 0.104855 -23.118443
v 22.037958 4.079956 -23.118443
v 21.835752 0.104855 -23.202198
v 21.835752 4.079956 -23.202198
v 21.751997 0.104855 -23.404404
v 21.751997 4.079956 -23.404404
v 21.835752 0.104855 -23.606609
v 21.835752 4.079956 -23.606609
v 24.673214 3.871982 -27.872913
v 24.593342 4.174743 -27.738592
v 24.673214 4.108764 -27.872913
v 7.317352 3.871982 -18.951704
v 7.397224 4.174744 -19.086025
v 7.317352 3.871982 -27.872911
v 7.397224 4.174744 -27.738590
v 12.622145 3.871982 -18.951704
v 12.542273 4.174744 -19.086025
v 12.622145 3.871982 -27.872911
v 12.542273 4.174744 -27.738590
v 7.317352 4.108765 -18.951704
v 7.317352 4.108765 -27.872911
v 12.622145 4.108765 -27.872911
v 12.622145 4.108765 -18.951704
v 9.764326 0.271433 -22.944967
v 8.812312 -0.038945 -21.028543
v 9.764326 0.271433 -23.877592
v 8.812312 -0.038945 -25.794018
v 10.227620 0.271433 -22.944967
v 11.179634 -0.038945 -21.028543
v 10.227620 0.271433 -23.877592
v 11.179634 -0.038945 -25.794018
v 8.812312 0.053790 -21.028543
v 8.812312 0.053790 -25.794018
v 11.179634 0.053790 -25.794018
v 11.179634 0.053790 -21.028543
v 9.986890 0.104856 -23.690363
v 9.986890 4.079956 -23.690363
v 10.189095 0.104856 -23.606606
v 10.189095 4.079956 -23.606606
v 10.272851 0.104856 -23.404402
v 10.272851 4.079956 -23.404402
v 10.189095 0.104856 -23.202196
v 10.189095 4.079956 -23.202196
v 9.986890 0.104856 -23.118441
v 9.986890 4.079956 -23.118441
v 9.784685 0.104856 -23.202196
v 9.784685 4.079956 -23.202196
v 9.700929 0.104856 -23.404402
v 9.700929 4.079956 -23.404402
v 9.784685 0.104856 -23.606606
v 9.784685 4.079956 -23.606606
v 12.622145 3.871982 -27.872911
v 12.542273 4.174744 -27.738590
v 12.622145 4.108765 -27.872911
v -4.881577 3.871982 -18.951704
v -4.801704 4.174744 -19.086025
v -4.881577 3.871982 -27.872911
v -4.801704 4.174744 -27.738590
v 0.423216 3.871982 -18.951704
v 0.343344 4.174744 -19.086025
v 0.423216 3.871982 -27.872911
v 0.343344 4.174744 -27.738590
v -4.881577 4.108765 -18.951704
v -4.881577 4.108765 -27.872911
v 0.423216 4.108765 -27.872911
v 0.423216 4.108765 -18.951704
v -2.434603 0.271433 -22.944967
v -3.386616 -0.038945 -21.028543
v -2.434603 0.271433 -23.877592
v -3.386616 -0.038945 -25.794018
v -1.971308 0.271433 -22.944967
v -1.019295 -0.038945 -21.028543
v -1.971308 0.271433 -23.877592
v -1.019295 -0.038945 -25.794018
v -3.386616 0.053790 -21.028543
v -3.386616 0.053790 -25.794018
v -1.019295 0.053790 -25.794018
v -1.019295 0.053790 -21.028543
v -2.212040 0.104856 -23.690363
v -2.212040 4.079956 -23.690363
v -2.009836 0.104856 -23.606606
v -2.009836 4.079956 -23.606606
v -1.926079 0.104856 -23.404402
v -1.926079 4.079956 -23.404402
v -2.009836 0.104856 -23.202196
v -2.009836 4.079956 -23.202196
v -2.212040 0.104856 -23.118441
v -2.212040 4.079956 -23.118441
v -2.414244 0.104856 -23.202196
v -2.414244 4.079956 -23.202196
v -2.498001 0.104856 -23.404402
v -2.498001 4.079956 -23.404402
v -2.414244 0.104856 -23.606606
v -2.414244 4.079956 -23.606606
v 0.423216 3.871982 -27.872911
v 0.343344 4.174744 -27.738590
v 0.423216 4.108765 -27.872911
v -17.302307 3.871982 -18.951704
v -17.222435 4.174744 -19.086025
v -17.302307 3.871982 -27.872911
v -17.222435 4.174744 -27.738590
v -11.997517 3.871982 -18.951704
v -12.077389 4.174744 -19.086025
v -11.997517 3.871982 -27.872911
v -12.077389 4.174744 -27.738590
v -17.302307 4.108765 -18.951704
v -17.302307 4.108765 -27.872911
v -11.997517 4.108765 -27.872911
v -11.997517 4.108765 -18.951704
v -14.855335 0.271433 -22.944967
v -15.807346 -0.038945 -21.028543
v -14.855335 0.271433 -23.877592
v -15.807346 -0.038945 -25.794018
v -14.392040 0.271433 -22.944967
v -13.440025 -0.038945 -21.028543
v -14.392040 0.271433 -23.877592
v -13.440025 -0.038945 -25.794018
v -15.807346 0.053790 -21.028543
v -15.807346 0.053790 -25.794018
v -13.440025 0.053790 -25.794018
v -13.440025 0.053790 -21.028543
v -14.632771 0.104856 -23.690363
v -14.632771 4.079956 -23.690363
v -14.430565 0.104856 -23.606606
v -14.430565 4.079956 -23.606606
v -14.346809 0.104856 -23.404402
v -14.346809 4.079956 -23.404402
v -14.430565 0.104856 -23.202196
v -14.430565 4.079956 -23.202196
v -14.632771 0.104856 -23.118441
v -14.632771 4.079956 -23.118441
v -14.834972 0.104856 -23.202196
v -14.834972 4.079956 -23.202196
v -14.918732 0.104856 -23.404402
v -14.918732 4.079956 -23.404402
v -14.834972 0.104856 -23.606606
v -14.834972 4.079956 -23.606606
v -11.997517 3.871982 -27.872911
v -12.077389 4.174744 -27.738590
v -11.997517 4.108765 -27.872911
vt 0.380590 0.020903
vt 0.391278 0.027937
vt 0.391278 0.481011
vt 0.380590 0.488045
vt 0.414598 0.019514
vt 0.425286 0.026547
vt 0.425286 0.479622
vt 0.414598 0.486655
vt 0.448973 0.017930
vt 0.459661 0.024963
vt 0.459661 0.478038
vt 0.448973 0.485071
vt 0.483833 0.019795
vt 0.494520 0.026829
vt 0.494520 0.479903
vt 0.483833 0.486937
vt 0.352924 0.131232
vt 0.352924 0.213053
vt 0.271103 0.213053
vt 0.271103 0.131232
vt 0.352651 0.481688
vt 0.094542 0.481688
vt 0.094542 0.223579
vt 0.352651 0.223579
vt 0.470735 0.019795
vt 0.470735 0.486937
vt 0.435876 0.017930
vt 0.435876 0.485071
vt 0.401501 0.019514
vt 0.401501 0.486655
vt 0.367493 0.020903
vt 0.367493 0.488045
vt 0.142934 0.155801
vt 0.093609 0.155801
vt 0.093607 0.069779
vt 0.142933 0.069778
vt 0.143176 0.020945
vt 0.214323 0.021299
vt 0.214080 0.070132
vt 0.263405 0.070132
vt 0.263405 0.156155
vt 0.214080 0.156155
vt 0.213836 0.204987
vt 0.142691 0.204632
vt 0.176464 0.110308
vt 0.180590 0.110824
vt 0.180549 0.115626
vt 0.176423 0.115109
vt 0.282496 0.073722
vt 0.282496 0.023456
vt 0.342665 0.023456
vt 0.342665 0.073722
vt 0.085260 0.023864
vt 0.085113 0.483603
vt 0.077090 0.483669
vt 0.077236 0.023930
vt 0.069066 0.483735
vt 0.069213 0.023996
vt 0.061042 0.483802
vt 0.061189 0.024063
vt 0.053019 0.483867
vt 0.053166 0.024128
vt 0.044995 0.483932
vt 0.045142 0.024193
vt 0.036972 0.483999
vt 0.037118 0.024260
vt 0.092249 0.487272
vt 0.094318 0.492525
vt 0.090107 0.496286
vt 0.082083 0.496352
vt 0.074947 0.492683
vt 0.072879 0.487430
vt 0.028948 0.484065
vt 0.029095 0.024326
vt 0.020925 0.484131
vt 0.021071 0.024392
vt 0.072965 0.020238
vt 0.074947 0.014951
vt 0.082023 0.011167
vt 0.090046 0.011102
vt 0.094318 0.014794
vt 0.092335 0.020080
vt 0.867408 0.517529
vt 0.878096 0.524563
vt 0.878096 0.977637
vt 0.867408 0.984671
vt 0.901416 0.516139
vt 0.912104 0.523173
vt 0.912104 0.976247
vt 0.901416 0.983281
vt 0.935791 0.514555
vt 0.946479 0.521589
vt 0.946479 0.974663
vt 0.935791 0.981696
vt 0.970650 0.516421
vt 0.981338 0.523454
vt 0.981338 0.976529
vt 0.970650 0.983562
vt 0.839742 0.627858
vt 0.839742 0.709679
vt 0.757921 0.709679
vt 0.757921 0.627858
vt 0.839468 0.978313
vt 0.581360 0.978313
vt 0.581360 0.720205
vt 0.839469 0.720205
vt 0.957553 0.516421
vt 0.957553 0.983562
vt 0.922694 0.514555
vt 0.922694 0.981696
vt 0.888319 0.516139
vt 0.888319 0.983281
vt 0.854311 0.517529
vt 0.854311 0.984671
vt 0.629752 0.652426
vt 0.580426 0.652427
vt 0.580425 0.566404
vt 0.629751 0.566404
vt 0.629993 0.517571
vt 0.701141 0.517925
vt 0.700897 0.566758
vt 0.750223 0.566758
vt 0.750223 0.652781
vt 0.700897 0.652780
vt 0.700654 0.701612
vt 0.629509 0.701257
vt 0.663282 0.606933
vt 0.667408 0.607450
vt 0.667367 0.612251
vt 0.663241 0.611735
vt 0.769314 0.570347
vt 0.769314 0.520081
vt 0.829483 0.520081
vt 0.829483 0.570347
vt 0.572078 0.520490
vt 0.571931 0.980229
vt 0.563907 0.980294
vt 0.564054 0.520555
vt 0.555884 0.980361
vt 0.556031 0.520622
vt 0.547860 0.980427
vt 0.548007 0.520688
vt 0.539837 0.980493
vt 0.539983 0.520754
vt 0.531813 0.980558
vt 0.531960 0.520819
vt 0.523789 0.980624
vt 0.523936 0.520885
vt 0.579067 0.983897
vt 0.581136 0.989150
vt 0.576925 0.992912
vt 0.568901 0.992977
vt 0.561765 0.989308
vt 0.559696 0.984055
vt 0.515766 0.980691
vt 0.515912 0.520952
vt 0.507742 0.980756
vt 0.507889 0.521017
vt 0.559782 0.516863
vt 0.561765 0.511577
vt 0.568840 0.507793
vt 0.576864 0.507727
vt 0.581136 0.511419
vt 0.579153 0.516705
vt 0.380411 0.511176
vt 0.391098 0.518210
vt 0.391098 0.971284
vt 0.380411 0.978318
vt 0.414419 0.509787
vt 0.425106 0.516820
vt 0.425106 0.969895
vt 0.414419 0.976928
vt 0.448794 0.508202
vt 0.459482 0.515236
vt 0.459482 0.968310
vt 0.448794 0.975344
vt 0.483653 0.510068
vt 0.494341 0.517102
vt 0.494341 0.970176
vt 0.483653 0.977210
vt 0.352745 0.621505
vt 0.352745 0.703326
vt 0.270924 0.703326
vt 0.270924 0.621505
vt 0.352471 0.971961
vt 0.094363 0.971961
vt 0.094363 0.713852
vt 0.352471 0.713852
vt 0.470556 0.510068
vt 0.470556 0.977210
vt 0.435697 0.508202
vt 0.435697 0.975344
vt 0.401321 0.509787
vt 0.401321 0.976928
vt 0.367314 0.511176
vt 0.367314 0.978318
vt 0.142755 0.646073
vt 0.093429 0.646074
vt 0.093428 0.560052
vt 0.142754 0.560051
vt 0.142996 0.511218
vt 0.214143 0.511572
vt 0.213900 0.560405
vt 0.263226 0.560405
vt 0.263226 0.646428
vt 0.213900 0.646428
vt 0.213657 0.695259
vt 0.142511 0.694905
vt 0.176285 0.600581
vt 0.180410 0.601097
vt 0.180370 0.605898
vt 0.176244 0.605382
vt 0.282317 0.563994
vt 0.282317 0.513728
vt 0.342485 0.513729
vt 0.342485 0.563994
vt 0.085081 0.514137
vt 0.084934 0.973876
vt 0.076910 0.973942
vt 0.077057 0.514203
vt 0.068887 0.974008
vt 0.069033 0.514269
vt 0.060863 0.974074
vt 0.061010 0.514335
vt 0.052839 0.974140
vt 0.052986 0.514401
vt 0.044816 0.974205
vt 0.044963 0.514466
vt 0.036792 0.974272
vt 0.036939 0.514533
vt 0.092070 0.977545
vt 0.094138 0.982798
vt 0.089928 0.986559
vt 0.081904 0.986624
vt 0.074768 0.982956
vt 0.072699 0.977702
vt 0.028769 0.974338
vt 0.028915 0.514599
vt 0.020745 0.974404
vt 0.020892 0.514665
vt 0.072785 0.510511
vt 0.074768 0.505224
vt 0.081843 0.501440
vt 0.089867 0.501375
vt 0.094138 0.505066
vt 0.092156 0.510353
vt 0.862860 0.021821
vt 0.873548 0.028854
vt 0.873548 0.481928
vt 0.862860 0.488962
vt 0.896868 0.020431
vt 0.907556 0.027464
vt 0.907556 0.480539
vt 0.896868 0.487572
vt 0.931243 0.018847
vt 0.941931 0.025880
vt 0.941931 0.478955
vt 0.931243 0.485988
vt 0.966102 0.020712
vt 0.976790 0.027746
vt 0.976790 0.480820
vt 0.966102 0.487854
vt 0.835194 0.132150
vt 0.835194 0.213970
vt 0.753373 0.213970
vt 0.753373 0.132149
vt 0.834921 0.482605
vt 0.576812 0.482605
vt 0.576812 0.224496
vt 0.834921 0.224496
vt 0.953005 0.020712
vt 0.953005 0.487854
vt 0.918146 0.018847
vt 0.918146 0.485988
vt 0.883771 0.020431
vt 0.883771 0.487572
vt 0.849763 0.021821
vt 0.849763 0.488962
vt 0.625204 0.156718
vt 0.575879 0.156718
vt 0.575877 0.070696
vt 0.625203 0.070695
vt 0.625446 0.021863
vt 0.696593 0.022216
vt 0.696350 0.071049
vt 0.745675 0.071049
vt 0.745675 0.157072
vt 0.696350 0.157072
vt 0.696106 0.205904
vt 0.624961 0.205549
vt 0.658734 0.111225
vt 0.662860 0.111741
vt 0.662819 0.116543
vt 0.658693 0.116026
vt 0.764766 0.074639
vt 0.764766 0.024373
vt 0.824935 0.024373
vt 0.824935 0.074639
vt 0.567530 0.024781
vt 0.567383 0.484520
vt 0.559360 0.484586
vt 0.559506 0.024847
vt 0.551336 0.484652
vt 0.551483 0.024913
vt 0.543312 0.484719
vt 0.543459 0.024980
vt 0.535289 0.484784
vt 0.535435 0.025045
vt 0.527265 0.484850
vt 0.527412 0.025111
vt 0.519242 0.484916
vt 0.519388 0.025177
vt 0.574519 0.488189
vt 0.576588 0.493442
vt 0.572377 0.497203
vt 0.564353 0.497269
vt 0.557217 0.493600
vt 0.555149 0.488347
vt 0.511218 0.484982
vt 0.511365 0.025243
vt 0.503194 0.485048
vt 0.503341 0.025309
vt 0.555235 0.021155
vt 0.557217 0.015869
vt 0.564293 0.012084
vt 0.572316 0.012019
vt 0.576588 0.015711
vt 0.574605 0.020997
vn -0.6369 0.7710 0.0000
vn 0.0000 0.8976 -0.4409
vn 0.6369 0.7710 0.0000
vn 0.0000 0.8976 0.4409
vn 0.0000 -1.0000 0.0000
vn 0.0000 1.0000 0.0000
vn 0.0000 0.0000 1.0000
vn 1.0000 0.0000 0.0000
vn 0.0000 0.0000 -1.0000
vn -1.0000 0.0000 0.0000
vn 0.0000 -0.9936 -0.1128
vn -0.2229 -0.9748 0.0000
vn 0.0000 -0.9936 0.1128
vn 0.2229 -0.9748 0.0000
vn 0.3827 0.0000 -0.9239
vn 0.9239 0.0000 -0.3827
vn 0.9239 0.0000 0.3827
vn 0.3827 0.0000 0.9239
vn -0.3827 0.0000 0.9239
vn -0.9239 0.0000 0.3827
vn -0.9239 0.0000 -0.3827
vn -0.3827 0.0000 -0.9239
usemtl BoothTablesMat
s off
f 9/1/1 2/2/1 4/3/1 10/4/1
f 10/5/2 4/6/2 8/7/2 11/8/2
f 11/9/3 8/10/3 6/11/3 12/12/3
f 12/13/4 6/14/4 2/15/4 9/16/4
f 3/17/5 7/18/5 5/19/5 1/20/5
f 8/21/6 4/22/6 2/23/6 6/24/6
f 5/25/7 12/13/7 9/16/7 1/26/7
f 7/27/8 11/9/8 12/12/8 5/28/8
f 3/29/9 10/5/9 11/8/9 7/30/9
f 1/31/10 9/1/10 10/4/10 3/32/10
f 21/33/8 14/34/8 16/35/8 22/36/8
f 22/36/7 16/37/7 20/38/7 23/39/7
f 23/39/10 20/40/10 18/41/10 24/42/10
f 24/42/9 18/43/9 14/44/9 21/33/9
f 15/45/5 19/46/5 17/47/5 13/48/5
f 20/49/6 16/50/6 14/51/6 18/52/6
f 17/47/11 24/42/11 21/33/11 13/48/11
f 19/46/12 23/39/12 24/42/12 17/47/12
f 15/45/13 22/36/13 23/39/13 19/46/13
f 13/48/14 21/33/14 22/36/14 15/45/14
f 25/53/15 26/54/15 28/55/15 27/56/15
f 27/56/16 28/55/16 30/57/16 29/58/16
f 29/58/17 30/57/17 32/59/17 31/60/17
f 31/60/18 32/59/18 34/61/18 33/62/18
f 33/62/19 34/61/19 36/63/19 35/64/19
f 35/64/20 36/63/20 38/65/20 37/66/20
f 28/55/6 26/54/6 40/67/6 38/68/6 36/69/6 34/70/6 32/71/6 30/72/6
f 37/66/21 38/65/21 40/73/21 39/74/21
f 39/74/22 40/73/22 26/75/22 25/76/22
f 25/53/5 27/56/5 29/77/5 31/78/5 33/79/5 35/80/5 37/81/5 39/82/5
f 52/83/1 45/84/1 47/85/1 53/86/1
f 53/87/2 47/88/2 51/89/2 54/90/2
f 54/91/3 51/92/3 49/93/3 55/94/3
f 55/95/4 49/96/4 45/97/4 52/98/4
f 46/99/5 50/100/5 48/101/5 44/102/5
f 51/103/6 47/104/6 45/105/6 49/106/6
f 48/107/7 55/95/7 52/98/7 44/108/7
f 50/109/8 54/91/8 55/94/8 48/110/8
f 46/111/9 53/87/9 54/90/9 50/112/9
f 44/113/10 52/83/10 53/86/10 46/114/10
f 64/115/8 57/116/8 59/117/8 65/118/8
f 65/118/7 59/119/7 63/120/7 66/121/7
f 66/121/10 63/122/10 61/123/10 67/124/10
f 67/124/9 61/125/9 57/126/9 64/115/9
f 58/127/5 62/128/5 60/129/5 56/130/5
f 63/131/6 59/132/6 57/133/6 61/134/6
f 60/129/11 67/124/11 64/115/11 56/130/11
f 62/128/12 66/121/12 67/124/12 60/129/12
f 58/127/13 65/118/13 66/121/13 62/128/13
f 56/130/14 64/115/14 65/118/14 58/127/14
f 68/135/15 69/136/15 71/137/15 70/138/15
f 70/138/16 71/137/16 73/139/16 72/140/16
f 72/140/17 73/139/17 75/141/17 74/142/17
f 74/142/18 75/141/18 77/143/18 76/144/18
f 76/144/19 77/143/19 79/145/19 78/146/19
f 78/146/20 79/145/20 81/147/20 80/148/20
f 71/137/6 69/136/6 83/149/6 81/150/6 79/151/6 77/152/6 75/153/6 73/154/6
f 80/148/21 81/147/21 83/155/21 82/156/21
f 82/156/22 83/155/22 69/157/22 68/158/22
f 68/135/5 70/138/5 72/159/5 74/160/5 76/161/5 78/162/5 80/163/5 82/164/5
f 95/165/1 88/166/1 90/167/1 96/168/1
f 96/169/2 90/170/2 94/171/2 97/172/2
f 97/173/3 94/174/3 92/175/3 98/176/3
f 98/177/4 92/178/4 88/179/4 95/180/4
f 89/181/5 93/182/5 91/183/5 87/184/5
f 94/185/6 90/186/6 88/187/6 92/188/6
f 91/189/7 98/177/7 95/180/7 87/190/7
f 93/191/8 97/173/8 98/176/8 91/192/8
f 89/193/9 96/169/9 97/172/9 93/194/9
f 87/195/10 95/165/10 96/168/10 89/196/10
f 107/197/8 100/198/8 102/199/8 108/200/8
f 108/200/7 102/201/7 106/202/7 109/203/7
f 109/203/10 106/204/10 104/205/10 110/206/10
f 110/206/9 104/207/9 100/208/9 107/197/9
f 101/209/5 105/210/5 103/211/5 99/212/5
f 106/213/6 102/214/6 100/215/6 104/216/6
f 103/211/11 110/206/11 107/197/11 99/212/11
f 105/210/12 109/203/12 110/206/12 103/211/12
f 101/209/13 108/200/13 109/203/13 105/210/13
f 99/212/14 107/197/14 108/200/14 101/209/14
f 111/217/15 112/218/15 114/219/15 113/220/15
f 113/220/16 114/219/16 116/221/16 115/222/16
f 115/222/17 116/221/17 118/223/17 117/224/17
f 117/224/18 118/223/18 120/225/18 119/226/18
f 119/226/19 120/225/19 122/227/19 121/228/19
f 121/228/20 122/227/20 124/229/20 123/230/20
f 114/219/6 112/218/6 126/231/6 124/232/6 122/233/6 120/234/6 118/235/6 116/236/6
f 123/230/21 124/229/21 126/237/21 125/238/21
f 125/238/22 126/237/22 112/239/22 111/240/22
f 111/217/5 113/220/5 115/241/5 117/242/5 119/243/5 121/244/5 123/245/5 125/246/5
f 138/247/1 131/248/1 133/249/1 139/250/1
f 139/251/2 133/252/2 137/253/2 140/254/2
f 140/255/3 137/256/3 135/257/3 141/258/3
f 141/259/4 135/260/4 131/261/4 138/262/4
f 132/263/5 136/264/5 134/265/5 130/266/5
f 137/267/6 133/268/6 131/269/6 135/270/6
f 134/271/7 141/259/7 138/262/7 130/272/7
f 136/273/8 140/255/8 141/258/8 134/274/8
f 132/275/9 139/251/9 140/254/9 136/276/9
f 130/277/10 138/247/10 139/250/10 132/278/10
f 150/279/8 143/280/8 145/281/8 151/282/8
f 151/282/7 145/283/7 149/284/7 152/285/7
f 152/285/10 149/286/10 147/287/10 153/288/10
f 153/288/9 147/289/9 143/290/9 150/279/9
f 144/291/5 148/292/5 146/293/5 142/294/5
f 149/295/6 145/296/6 143/297/6 147/298/6
f 146/293/11 153/288/11 150/279/11 142/294/11
f 148/292/12 152/285/12 153/288/12 146/293/12
f 144/291/13 151/282/13 152/285/13 148/292/13
f 142/294/14 150/279/14 151/282/14 144/291/14
f 154/299/15 155/300/15 157/301/15 156/302/15
f 156/302/16 157/301/16 159/303/16 158/304/16
f 158/304/17 159/303/17 161/305/17 160/306/17
f 160/306/18 161/305/18 163/307/18 162/308/18
f 162/308/19 163/307/19 165/309/19 164/310/19
f 164/310/20 165/309/20 167/311/20 166/312/20
f 157/301/6 155/300/6 169/313/6 167/314/6 165/315/6 163/316/6 161/317/6 159/318/6
f 166/312/21 167/311/21 169/319/21 168/320/21
f 168/320/22 169/319/22 155/321/22 154/322/22
f 154/299/5 156/302/5 158/323/5 160/324/5 162/325/5 164/326/5 166/327/5 168/328/5
l 43 41
l 42 43
l 86 84
l 85 86
l 129 127
l 128 129
l 172 170
l 171 172
